<svg xmlns="http://www.w3.org/2000/svg" xmlns:xlink="http://www.w3.org/1999/xlink" version="1.1" width="256" height="256" viewBox="0 0 256 256" xml:space="preserve">
<desc>Created with Fabric.js 1.7.22</desc>
<defs>
</defs>
<g transform="translate(128 128) scale(0.72 0.72)" style="">
	<g style="stroke: none; stroke-width: 0; stroke-dasharray: none; stroke-linecap: butt; stroke-linejoin: miter; stroke-miterlimit: 10; fill: none; fill-rule: nonzero; opacity: 1;" transform="translate(-175.05 -175.05000000000004) scale(3.89 3.89)" >
	<path d="M 89 66.743 h -3.679 V 21.639 c 0 -3.483 -2.834 -6.317 -6.317 -6.317 H 10.996 c -3.483 0 -6.317 2.834 -6.317 6.317 v 45.104 H 1 c -0.552 0 -1 0.447 -1 1 v 0.909 c 0 3.322 2.703 6.025 6.026 6.025 h 33.138 h 11.672 h 33.138 c 3.323 0 6.026 -2.703 6.026 -6.025 v -0.909 C 90 67.19 89.553 66.743 89 66.743 z M 6.679 21.639 c 0 -2.38 1.937 -4.317 4.317 -4.317 h 68.008 c 2.381 0 4.317 1.937 4.317 4.317 v 45.104 H 50.836 H 39.164 H 6.679 V 21.639 z M 6.026 72.678 c -2.189 0 -3.977 -1.757 -4.025 -3.935 h 2.678 h 34.485 v 3.935 H 6.026 z M 41.164 72.678 v -3.935 h 7.672 v 3.935 H 41.164 z M 83.974 72.678 H 50.836 v -3.935 h 34.485 h 2.678 C 87.95 70.921 86.163 72.678 83.974 72.678 z" style="stroke: none; stroke-width: 1; stroke-dasharray: none; stroke-linecap: butt; stroke-linejoin: miter; stroke-miterlimit: 10; fill: rgb(0,0,0); fill-rule: nonzero; opacity: 1;" transform=" matrix(1 0 0 1 0 0) " stroke-linecap="round" />
	<path d="M 52.068 23.119 h 24.974 c 0.467 0 0.846 0.379 0.846 0.846 v 37.778 c 0 0.553 0.447 1 1 1 s 1 -0.447 1 -1 V 23.965 c 0 -1.569 -1.276 -2.846 -2.846 -2.846 H 52.068 c -0.553 0 -1 0.448 -1 1 S 51.516 23.119 52.068 23.119 z" style="stroke: none; stroke-width: 1; stroke-dasharray: none; stroke-linecap: butt; stroke-linejoin: miter; stroke-miterlimit: 10; fill: rgb(0,0,0); fill-rule: nonzero; opacity: 1;" transform=" matrix(1 0 0 1 0 0) " stroke-linecap="round" />
	<path d="M 38.932 22.119 c 0 -0.552 -0.448 -1 -1 -1 H 12.958 c -1.569 0 -2.846 1.276 -2.846 2.846 v 37.778 c 0 0.553 0.448 1 1 1 s 1 -0.447 1 -1 V 23.965 c 0 -0.466 0.379 -0.846 0.846 -0.846 h 24.974 C 38.484 23.119 38.932 22.671 38.932 22.119 z" style="stroke: none; stroke-width: 1; stroke-dasharray: none; stroke-linecap: butt; stroke-linejoin: miter; stroke-miterlimit: 10; fill: rgb(0,0,0); fill-rule: nonzero; opacity: 1;" transform=" matrix(1 0 0 1 0 0) " stroke-linecap="round" />
	<path d="M 44.031 23.119 h 1.938 c 0.552 0 1 -0.448 1 -1 s -0.448 -1 -1 -1 h -1.938 c -0.552 0 -1 0.448 -1 1 S 43.479 23.119 44.031 23.119 z" style="stroke: none; stroke-width: 1; stroke-dasharray: none; stroke-linecap: butt; stroke-linejoin: miter; stroke-miterlimit: 10; fill: rgb(0,0,0); fill-rule: nonzero; opacity: 1;" transform=" matrix(1 0 0 1 0 0) " stroke-linecap="round" />
	<path d="M 32.162 53.762 c 0.042 0.012 0.078 0.037 0.123 0.044 c 0.028 0.004 0.055 0.004 0.083 0.006 c 4.049 1.519 8.852 2.284 13.663 2.284 c 4.809 0 9.616 -0.765 13.67 -2.284 c 0.028 -0.002 0.056 -0.002 0.084 -0.006 c 0.019 -0.003 0.034 -0.015 0.053 -0.019 c 0.092 -0.019 0.179 -0.05 0.262 -0.093 c 0.025 -0.013 0.052 -0.021 0.075 -0.036 c 0.097 -0.061 0.183 -0.139 0.255 -0.232 c 0.017 -0.022 0.026 -0.048 0.041 -0.072 c 0.037 -0.057 0.076 -0.111 0.102 -0.176 c 0.007 -0.018 0.004 -0.037 0.009 -0.055 c 0.021 -0.063 0.026 -0.128 0.033 -0.195 c 0.003 -0.026 0.012 -0.051 0.013 -0.076 c 0.002 -0.02 0.009 -0.037 0.01 -0.057 c 0 -0.02 -0.008 -0.038 -0.01 -0.057 c 0 -0.004 -0.002 -0.008 -0.002 -0.013 c -0.002 -0.018 0.005 -0.035 0.003 -0.053 l -1.157 -7.926 l 8.911 -2.928 c 0.716 -0.235 1.196 -0.9 1.196 -1.653 s -0.48 -1.418 -1.196 -1.653 L 48.506 31.98 c -1.626 -0.534 -3.343 -0.535 -4.969 0 l -19.878 6.531 c -0.716 0.235 -1.197 0.9 -1.197 1.653 v 6.859 c -1.185 0.416 -2.042 1.534 -2.042 2.859 v 6.399 c 0 0.553 0.448 1 1 1 h 4.084 c 0.552 0 1 -0.447 1 -1 v -6.399 c 0 -1.326 -0.857 -2.444 -2.042 -2.859 v -4.942 l 8.134 2.673 l -1.157 7.917 c -0.003 0.019 0.005 0.036 0.003 0.056 c 0 0.003 -0.002 0.006 -0.002 0.009 c -0.002 0.02 -0.009 0.038 -0.01 0.058 c 0 0.02 0.008 0.038 0.01 0.058 c 0.001 0.024 0.01 0.047 0.012 0.071 c 0.008 0.069 0.013 0.136 0.035 0.2 c 0.006 0.018 0.002 0.036 0.009 0.054 c 0.016 0.041 0.047 0.068 0.067 0.105 c 0.034 0.062 0.066 0.122 0.112 0.176 c 0.042 0.049 0.089 0.087 0.139 0.126 c 0.05 0.04 0.099 0.078 0.157 0.109 C 32.033 53.725 32.096 53.743 32.162 53.762 z M 35.719 52.795 c 6.422 -1.747 14.203 -1.747 20.629 0 C 49.92 54.542 42.141 54.542 35.719 52.795 z M 24.504 55.282 H 22.42 v -5.399 c 0 -0.574 0.467 -1.042 1.042 -1.042 s 1.042 0.468 1.042 1.042 V 55.282 z M 25.035 40.165 l 19.126 -6.284 c 1.218 -0.4 2.504 -0.4 3.72 0 l 19.127 6.284 l -7.829 2.572 l -0.193 -1.32 c -0.012 -0.083 -0.051 -0.153 -0.081 -0.228 c -0.006 -0.015 -0.009 -0.029 -0.016 -0.044 c -0.047 -0.102 -0.11 -0.189 -0.187 -0.268 c -0.014 -0.015 -0.026 -0.031 -0.041 -0.046 c -0.077 -0.07 -0.163 -0.122 -0.258 -0.165 c -0.022 -0.01 -0.036 -0.029 -0.059 -0.038 c -0.023 -0.009 -0.047 -0.016 -0.071 -0.025 c -0.012 -0.003 -0.022 -0.009 -0.034 -0.012 c -0.79 -0.303 -1.591 -0.585 -2.387 -0.831 c -0.526 -0.165 -1.088 0.133 -1.25 0.66 c -0.163 0.528 0.132 1.088 0.66 1.251 c 0.61 0.189 1.223 0.412 1.832 0.638 l 1.316 9.009 c -7.527 -2.436 -17.231 -2.436 -24.754 0 l 1.318 -9.024 c 4.779 -1.764 9.616 -2.4 14.386 -1.866 c 0.556 0.066 1.044 -0.334 1.105 -0.882 c 0.062 -0.549 -0.334 -1.043 -0.883 -1.105 c -5.284 -0.593 -10.625 0.145 -15.888 2.187 c -0.055 0.021 -0.094 0.062 -0.143 0.092 c -0.036 0.022 -0.072 0.041 -0.105 0.067 c -0.081 0.064 -0.146 0.139 -0.202 0.222 c -0.012 0.018 -0.025 0.033 -0.036 0.052 c -0.063 0.107 -0.102 0.22 -0.122 0.343 c -0.001 0.004 -0.004 0.007 -0.004 0.012 l -0.003 0.019 c -0.005 0.041 -0.017 0.079 -0.018 0.12 l -0.174 1.189 L 25.035 40.165 z" style="stroke: none; stroke-width: 1; stroke-dasharray: none; stroke-linecap: butt; stroke-linejoin: miter; stroke-miterlimit: 10; fill: rgb(0,0,0); fill-rule: nonzero; opacity: 1;" transform=" matrix(1 0 0 1 0 0) " stroke-linecap="round" />
</g>
</g>
</svg>