<svg xmlns="http://www.w3.org/2000/svg" xmlns:xlink="http://www.w3.org/1999/xlink" version="1.1" width="256" height="256" viewBox="0 0 256 256" xml:space="preserve">
<desc>Created with Fabric.js 1.7.22</desc>
<defs>
</defs>
<g transform="translate(128 128) scale(1.21 1.21)" style="">
	<g style="stroke: none; stroke-width: 0; stroke-dasharray: none; stroke-linecap: butt; stroke-linejoin: miter; stroke-miterlimit: 10; fill: none; fill-rule: nonzero; opacity: 1;" transform="translate(-104.85 -104.85000000000001) scale(2.33 2.33)" >
	<path d="M 88.999 90 H 1 c -0.552 0 -1 -0.447 -1 -1 V 1 c 0 -0.404 0.244 -0.769 0.617 -0.924 c 0.374 -0.155 0.803 -0.07 1.09 0.217 l 87.999 88 c 0.286 0.286 0.372 0.716 0.217 1.09 C 89.769 89.757 89.404 90 88.999 90 z M 2 88 h 84.585 L 2 3.414 V 88 z" style="stroke: none; stroke-width: 1; stroke-dasharray: none; stroke-linecap: butt; stroke-linejoin: miter; stroke-miterlimit: 10; fill: rgb(0,0,0); fill-rule: nonzero; opacity: 1;" transform=" matrix(1 0 0 1 0 0) " stroke-linecap="round" />
	<path d="M 45 89.01 c -0.552 0 -1 -0.447 -1 -1 v -4.77 c 0 -0.553 0.448 -1 1 -1 c 0.552 0 1 0.447 1 1 v 4.77 C 46 88.563 45.552 89.01 45 89.01 z" style="stroke: none; stroke-width: 1; stroke-dasharray: none; stroke-linecap: butt; stroke-linejoin: miter; stroke-miterlimit: 10; fill: rgb(0,0,0); fill-rule: nonzero; opacity: 1;" transform=" matrix(1 0 0 1 0 0) " stroke-linecap="round" />
	<path d="M 15 89.01 c -0.552 0 -1 -0.447 -1 -1 v -4.77 c 0 -0.553 0.448 -1 1 -1 s 1 0.447 1 1 v 4.77 C 16 88.563 15.552 89.01 15 89.01 z" style="stroke: none; stroke-width: 1; stroke-dasharray: none; stroke-linecap: butt; stroke-linejoin: miter; stroke-miterlimit: 10; fill: rgb(0,0,0); fill-rule: nonzero; opacity: 1;" transform=" matrix(1 0 0 1 0 0) " stroke-linecap="round" />
	<path d="M 75 89.01 c -0.553 0 -1 -0.447 -1 -1 v -4.77 c 0 -0.553 0.447 -1 1 -1 s 1 0.447 1 1 v 4.77 C 76 88.563 75.552 89.01 75 89.01 z" style="stroke: none; stroke-width: 1; stroke-dasharray: none; stroke-linecap: butt; stroke-linejoin: miter; stroke-miterlimit: 10; fill: rgb(0,0,0); fill-rule: nonzero; opacity: 1;" transform=" matrix(1 0 0 1 0 0) " stroke-linecap="round" />
	<path d="M 30 89.01 c -0.552 0 -1 -0.447 -1 -1 v -2.886 c 0 -0.553 0.448 -1 1 -1 s 1 0.447 1 1 v 2.886 C 31 88.563 30.552 89.01 30 89.01 z" style="stroke: none; stroke-width: 1; stroke-dasharray: none; stroke-linecap: butt; stroke-linejoin: miter; stroke-miterlimit: 10; fill: rgb(0,0,0); fill-rule: nonzero; opacity: 1;" transform=" matrix(1 0 0 1 0 0) " stroke-linecap="round" />
	<path d="M 60 89.01 c -0.553 0 -1 -0.447 -1 -1 v -2.886 c 0 -0.553 0.447 -1 1 -1 c 0.553 0 1 0.447 1 1 v 2.886 C 61 88.563 60.552 89.01 60 89.01 z" style="stroke: none; stroke-width: 1; stroke-dasharray: none; stroke-linecap: butt; stroke-linejoin: miter; stroke-miterlimit: 10; fill: rgb(0,0,0); fill-rule: nonzero; opacity: 1;" transform=" matrix(1 0 0 1 0 0) " stroke-linecap="round" />
	<path d="M 5.771 46 H 1 c -0.552 0 -1 -0.448 -1 -1 c 0 -0.552 0.448 -1 1 -1 h 4.771 c 0.552 0 1 0.448 1 1 C 6.771 45.553 6.324 46 5.771 46 z" style="stroke: none; stroke-width: 1; stroke-dasharray: none; stroke-linecap: butt; stroke-linejoin: miter; stroke-miterlimit: 10; fill: rgb(0,0,0); fill-rule: nonzero; opacity: 1;" transform=" matrix(1 0 0 1 0 0) " stroke-linecap="round" />
	<path d="M 5.771 76 H 1 c -0.552 0 -1 -0.447 -1 -1 s 0.448 -1 1 -1 h 4.771 c 0.552 0 1 0.447 1 1 S 6.324 76 5.771 76 z" style="stroke: none; stroke-width: 1; stroke-dasharray: none; stroke-linecap: butt; stroke-linejoin: miter; stroke-miterlimit: 10; fill: rgb(0,0,0); fill-rule: nonzero; opacity: 1;" transform=" matrix(1 0 0 1 0 0) " stroke-linecap="round" />
	<path d="M 5.771 16.001 H 1 c -0.552 0 -1 -0.448 -1 -1 s 0.448 -1 1 -1 h 4.771 c 0.552 0 1 0.448 1 1 S 6.324 16.001 5.771 16.001 z" style="stroke: none; stroke-width: 1; stroke-dasharray: none; stroke-linecap: butt; stroke-linejoin: miter; stroke-miterlimit: 10; fill: rgb(0,0,0); fill-rule: nonzero; opacity: 1;" transform=" matrix(1 0 0 1 0 0) " stroke-linecap="round" />
	<path d="M 3.886 61 H 1 c -0.552 0 -1 -0.447 -1 -1 c 0 -0.553 0.448 -1 1 -1 h 2.886 c 0.552 0 1 0.447 1 1 C 4.886 60.553 4.438 61 3.886 61 z" style="stroke: none; stroke-width: 1; stroke-dasharray: none; stroke-linecap: butt; stroke-linejoin: miter; stroke-miterlimit: 10; fill: rgb(0,0,0); fill-rule: nonzero; opacity: 1;" transform=" matrix(1 0 0 1 0 0) " stroke-linecap="round" />
	<path d="M 3.886 31.001 H 1 c -0.552 0 -1 -0.448 -1 -1 s 0.448 -1 1 -1 h 2.886 c 0.552 0 1 0.448 1 1 S 4.438 31.001 3.886 31.001 z" style="stroke: none; stroke-width: 1; stroke-dasharray: none; stroke-linecap: butt; stroke-linejoin: miter; stroke-miterlimit: 10; fill: rgb(0,0,0); fill-rule: nonzero; opacity: 1;" transform=" matrix(1 0 0 1 0 0) " stroke-linecap="round" />
	<path d="M 52.214 76 H 15.001 c -0.552 0 -1 -0.447 -1 -1 V 37.787 c 0 -0.404 0.244 -0.769 0.617 -0.924 c 0.374 -0.156 0.804 -0.07 1.09 0.217 l 37.213 37.213 c 0.286 0.286 0.372 0.716 0.217 1.09 C 52.983 75.757 52.618 76 52.214 76 z M 16.001 74 H 49.8 L 16.001 40.201 V 74 z" style="stroke: none; stroke-width: 1; stroke-dasharray: none; stroke-linecap: butt; stroke-linejoin: miter; stroke-miterlimit: 10; fill: rgb(0,0,0); fill-rule: nonzero; opacity: 1;" transform=" matrix(1 0 0 1 0 0) " stroke-linecap="round" />
</g>
</g>
</svg>