<svg xmlns="http://www.w3.org/2000/svg" xmlns:xlink="http://www.w3.org/1999/xlink" version="1.1" width="256" height="256" viewBox="0 0 256 256" xml:space="preserve">
<desc>Created with Fabric.js 1.7.22</desc>
<defs>
</defs>
<g transform="translate(128 128) scale(0.72 0.72)" style="">
	<g style="stroke: none; stroke-width: 0; stroke-dasharray: none; stroke-linecap: butt; stroke-linejoin: miter; stroke-miterlimit: 10; fill: none; fill-rule: nonzero; opacity: 1;" transform="translate(-175.05 -175.05000000000004) scale(3.89 3.89)" >
	<path d="M 88.873 54.007 c -0.002 -0.008 0 -0.015 -0.003 -0.023 l -1.021 -3.191 c -0.126 -0.394 -0.48 -0.669 -0.894 -0.693 c -4.872 -0.288 -9.314 0.971 -12.483 2.901 l -0.47 -1.108 c -2.251 -5.309 -7.101 -8.947 -12.705 -9.705 V 16.75 C 61.297 7.514 53.782 0 44.546 0 c -9.236 0 -16.75 7.514 -16.75 16.75 v 25.428 c -5.637 0.735 -10.522 4.38 -12.784 9.714 l -1.435 3.384 l -0.968 -8.924 c -0.047 -0.431 -0.364 -0.757 -0.763 -0.854 l -0.09 -1.342 c 0.736 -0.208 1.253 -0.911 1.199 -1.703 l -0.914 -13.608 c -0.049 -0.734 -0.381 -1.406 -0.936 -1.89 c -0.555 -0.484 -1.267 -0.724 -1.998 -0.674 c -0.734 0.049 -1.406 0.381 -1.89 0.936 s -0.724 1.264 -0.674 1.998 l 0.295 4.405 c 0.006 0.096 -0.066 0.18 -0.163 0.187 l -2.321 0.156 c -1.131 0.076 -2.166 0.587 -2.913 1.442 c -0.747 0.854 -1.116 1.947 -1.04 3.079 l 0.321 4.791 c 0.029 0.441 0.229 0.845 0.562 1.136 c 0.245 0.214 0.54 0.349 0.854 0.393 l 0.113 1.679 c -0.28 0.198 -0.46 0.522 -0.429 0.888 l 2.692 32.11 c 0.334 2.107 1.668 3.941 3.57 4.906 c 1.606 0.815 3.432 0.947 5.14 0.374 c 1.708 -0.574 3.083 -1.783 3.872 -3.403 l 7 -14.391 c 0.238 3.392 1.668 6.44 4.281 9.108 V 89 c 0 0.553 0.448 1 1 1 h 30.36 c 0.553 0 1 -0.447 1 -1 V 78.366 l 6.761 2.187 c 0.101 0.033 0.204 0.049 0.308 0.049 h 3.845 l 0.367 0.755 c 0.789 1.62 2.164 2.829 3.872 3.403 c 0.698 0.234 1.416 0.352 2.131 0.352 c 1.033 0 2.06 -0.244 3.009 -0.726 c 1.719 -0.872 2.967 -2.458 3.438 -4.311 c 1.169 -0.288 2.041 -1.337 2.041 -2.593 v -1.015 l 1.715 -0.555 c 0.413 -0.134 0.692 -0.518 0.692 -0.951 V 54.289 C 88.918 54.192 88.9 54.098 88.873 54.007 z M 86.156 52.066 l 0.506 1.578 L 73.415 57.93 h -1.304 C 73.703 55.095 79.185 51.9 86.156 52.066 z M 66.808 78.227 l -12.345 -3.993 V 55.664 l 12.345 3.993 V 78.227 z M 67.966 57.93 l -13.247 -4.285 l 0.506 -1.578 c 7.011 -0.167 12.454 3.028 14.045 5.863 H 67.966 z M 29.796 16.75 C 29.796 8.617 36.413 2 44.546 2 s 14.75 6.617 14.75 14.75 v 25.29 c -0.062 -0.001 -0.122 -0.007 -0.184 -0.007 h -2.964 c -1.714 0 -3.108 -1.395 -3.108 -3.108 v -2.743 c 2.682 -3.031 4.326 -7.267 4.326 -11.254 v -8.156 c 0 -0.55 -0.444 -0.997 -0.994 -1 c -3.517 -0.022 -5.545 -1.093 -7.508 -2.694 c -0.302 -0.247 -0.72 -0.294 -1.068 -0.125 c -4.031 1.954 -8.54 2.797 -15.075 2.819 c -0.551 0.002 -0.997 0.449 -0.997 1 v 8.156 c 0 3.947 1.613 8.136 4.248 11.161 v 2.835 c 0 1.714 -1.395 3.108 -3.108 3.108 h -2.963 c -0.035 0 -0.07 0.004 -0.105 0.004 V 16.75 z M 44.546 38.388 c -6.094 0 -10.821 -7.235 -10.821 -13.459 v -7.166 c 6.035 -0.1 10.418 -0.936 14.375 -2.741 c 2.268 1.728 4.462 2.552 7.268 2.719 v 7.188 C 55.367 31.153 50.641 38.388 44.546 38.388 z M 37.973 38.925 v -0.934 c 1.899 1.478 4.129 2.396 6.574 2.396 c 2.41 0 4.613 -0.892 6.495 -2.333 v 0.87 c 0 2.184 1.384 4.037 3.316 4.767 l -9.885 15.266 L 34.598 43.71 C 36.56 42.997 37.973 41.131 37.973 38.925 z M 2.949 36.719 c 0.395 -0.452 0.942 -0.723 1.541 -0.763 L 6.811 35.8 c 1.196 -0.08 2.104 -1.119 2.024 -2.315 L 8.539 29.08 c -0.028 -0.416 0.288 -0.776 0.703 -0.805 c 0.405 -0.032 0.776 0.287 0.805 0.703 l 0.893 13.3 c -0.735 0.208 -1.252 0.91 -1.199 1.704 l 0.109 1.627 l -5.614 0.527 l -0.12 -1.777 C 4.063 43.566 3.457 42.94 2.7 42.832 l -0.301 -4.484 C 2.359 37.75 2.554 37.171 2.949 36.719 z M 58.739 88 h -28.36 V 75.66 c 0 -0.27 -0.108 -0.527 -0.301 -0.716 c -3.807 -3.718 -4.896 -8.121 -3.329 -13.46 c 0.146 -0.498 -0.114 -1.026 -0.599 -1.214 c -0.484 -0.188 -1.032 0.028 -1.26 0.495 l -9.591 19.716 c -0.552 1.135 -1.515 1.98 -2.71 2.383 c -1.194 0.401 -2.473 0.309 -3.598 -0.262 c -1.331 -0.676 -2.265 -1.96 -2.489 -3.362 L 3.9 48.189 l 6.827 -0.642 l 2.292 21.141 c 0.06 0.55 0.554 0.94 1.102 0.887 c 0.549 -0.06 0.946 -0.553 0.886 -1.102 l -0.989 -9.115 l 2.834 -6.684 c 2.078 -4.903 6.685 -8.183 11.929 -8.594 c 0.005 0 0.008 0.003 0.013 0.003 c 0.016 0 0.029 -0.008 0.045 -0.009 c 0.351 -0.026 0.704 -0.039 1.06 -0.039 h 2.524 l 11.207 17.308 c 0.184 0.284 0.5 0.456 0.839 0.456 s 0.655 -0.172 0.839 -0.456 l 11.208 -17.308 h 2.594 c 5.701 0 10.822 3.391 13.047 8.64 l 0.639 1.506 c -0.869 0.709 -1.582 1.47 -2.108 2.259 c -2.434 -3.652 -8.855 -6.774 -16.265 -6.339 c -0.413 0.024 -0.768 0.3 -0.894 0.693 l -1.021 3.191 c -0.002 0.008 0 0.015 -0.003 0.023 c -0.027 0.091 -0.045 0.184 -0.045 0.282 v 20.672 c 0 0.434 0.279 0.818 0.692 0.951 l 5.584 1.806 V 88 z M 68.808 59.93 h 1.883 h 1.883 v 18.672 h -3.766 V 59.93 z M 80.127 82.603 c -1.124 0.569 -2.4 0.664 -3.599 0.262 c -1.167 -0.393 -2.107 -1.214 -2.664 -2.309 c 0.006 -0.002 0.011 -0.001 0.017 -0.003 l 2.743 -0.887 c 0.437 0.309 0.966 0.495 1.541 0.495 h 4.184 C 81.932 81.206 81.148 82.084 80.127 82.603 z M 84.511 77.482 c 0 0.374 -0.305 0.678 -0.679 0.678 h -5.667 c -0.374 0 -0.678 -0.304 -0.678 -0.678 v -2.049 c 0 -1.616 1.314 -2.931 2.93 -2.931 h 1.163 c 1.616 0 2.931 1.314 2.931 2.931 V 77.482 z M 86.918 74.233 l -0.52 0.168 c -0.476 -2.224 -2.454 -3.899 -4.818 -3.899 h -1.163 c -2.718 0 -4.93 2.212 -4.93 4.931 v 2.049 c 0 0.149 0.021 0.293 0.044 0.435 l -0.958 0.31 v -18.57 l 12.345 -3.993 V 74.233 z" style="stroke: none; stroke-width: 1; stroke-dasharray: none; stroke-linecap: butt; stroke-linejoin: miter; stroke-miterlimit: 10; fill: rgb(0,0,0); fill-rule: nonzero; opacity: 1;" transform=" matrix(1 0 0 1 0 0) " stroke-linecap="round" />
	<path d="M 41.846 22.983 c 0.148 0.077 0.306 0.113 0.461 0.113 c 0.361 0 0.709 -0.196 0.888 -0.538 c 0.255 -0.49 0.065 -1.094 -0.424 -1.349 c -1.907 -0.994 -3.841 -0.994 -5.749 0 c -0.49 0.255 -0.68 0.859 -0.424 1.349 c 0.255 0.489 0.858 0.68 1.349 0.424 C 39.257 22.299 40.533 22.299 41.846 22.983 z" style="stroke: none; stroke-width: 1; stroke-dasharray: none; stroke-linecap: butt; stroke-linejoin: miter; stroke-miterlimit: 10; fill: rgb(0,0,0); fill-rule: nonzero; opacity: 1;" transform=" matrix(1 0 0 1 0 0) " stroke-linecap="round" />
	<path d="M 51.939 21.209 c -1.907 -0.994 -3.84 -0.995 -5.749 0 c -0.489 0.255 -0.679 0.859 -0.424 1.349 c 0.255 0.49 0.855 0.682 1.35 0.424 c 1.31 -0.684 2.586 -0.685 3.897 0 c 0.148 0.077 0.307 0.113 0.462 0.113 c 0.361 0 0.709 -0.196 0.888 -0.538 C 52.618 22.069 52.429 21.465 51.939 21.209 z" style="stroke: none; stroke-width: 1; stroke-dasharray: none; stroke-linecap: butt; stroke-linejoin: miter; stroke-miterlimit: 10; fill: rgb(0,0,0); fill-rule: nonzero; opacity: 1;" transform=" matrix(1 0 0 1 0 0) " stroke-linecap="round" />
	<path d="M 50.014 29.285 H 38.948 c -0.379 0 -0.726 0.215 -0.895 0.554 c -0.169 0.34 -0.131 0.746 0.097 1.049 c 2.026 2.681 4.15 4.042 6.313 4.046 c 0.003 0 0.005 0 0.008 0 c 2.165 0 4.297 -1.36 6.338 -4.043 c 0.23 -0.302 0.269 -0.709 0.1 -1.05 C 50.741 29.5 50.394 29.285 50.014 29.285 z M 44.471 32.934 c -0.001 0 -0.003 0 -0.005 0 c -1.069 -0.002 -2.18 -0.555 -3.319 -1.649 h 6.659 C 46.659 32.381 45.542 32.934 44.471 32.934 z" style="stroke: none; stroke-width: 1; stroke-dasharray: none; stroke-linecap: butt; stroke-linejoin: miter; stroke-miterlimit: 10; fill: rgb(0,0,0); fill-rule: nonzero; opacity: 1;" transform=" matrix(1 0 0 1 0 0) " stroke-linecap="round" />
</g>
</g>
</svg>